<svg width="68" height="74" viewBox="0 0 68 74" fill="none" xmlns="http://www.w3.org/2000/svg">
<path d="M31.052 36.5125C31.052 36.5125 41.522 42.4124 46.692 45.5724C50.342 47.7924 54.062 49.1324 58.332 48.8524C45.092 56.5624 31.932 64.4125 18.582 71.9225C12.582 75.2825 5.69197 72.9225 2.46197 67.0225C1.66315 65.6663 1.14374 64.1639 0.934289 62.604C0.72484 61.044 0.829596 59.4579 1.24239 57.939C1.65519 56.4201 2.3677 54.9992 3.33795 53.7598C4.30819 52.5205 5.51656 51.4877 6.89196 50.7224C14.782 45.8924 31.052 36.5125 31.052 36.5125Z" fill="#F9BC17"/>
<path d="M59.142 24.6225C46.142 17.3625 33.322 9.8325 20.452 2.3625C17.342 0.5625 14.142 -0.6375 10.532 0.3625C5.68197 1.7025 2.38198 4.6825 1.41198 9.7725C0.351976 15.2625 2.41198 19.7025 7.41198 22.7725C15.122 27.5325 41.492 42.4025 46.662 45.5625C50.312 47.7825 54.032 49.1225 58.302 48.8425C63.832 46.6925 67.752 43.0125 67.822 36.8425C67.922 30.8925 64.112 27.4025 59.142 24.6225Z" fill="#36A852"/>
</svg>
