<svg width="67" height="74" viewBox="0 0 67 74" fill="none" xmlns="http://www.w3.org/2000/svg">
<path d="M36.384 36.7887C31.384 33.9487 26.524 31.1487 21.674 28.0987C17.784 25.6487 13.774 24.2587 9.17398 24.7487C22.424 16.9987 35.604 9.11874 48.964 1.55874C50.3409 0.772324 51.8618 0.270485 53.4363 0.0830284C55.0109 -0.104428 56.607 0.0263006 58.1301 0.467458C59.6532 0.908616 61.0721 1.65123 62.3027 2.6512C63.5333 3.65118 64.5505 4.88814 65.294 6.28872C68.454 11.9787 66.504 19.0687 60.564 22.6487C52.594 27.4087 44.364 32.1187 36.384 36.7887Z" fill="#EA4536"/>
<path d="M58.814 49.8188C51.384 45.4588 26.524 31.1488 21.674 28.0988C17.784 25.6488 13.774 24.2588 9.17397 24.7488C3.79397 26.8988 0.173958 30.6688 0.00395768 36.5688C-0.136042 42.2888 3.45398 45.8488 8.27398 48.5688C21.124 55.8188 33.844 63.2888 46.634 70.6288C54.294 75.0288 61.484 73.6288 65.164 67.1988C68.844 60.7688 66.294 54.2488 58.814 49.8188Z" fill="#557EBF"/>
</svg>
