<svg width="40" height="40" viewBox="0 0 40 40" fill="none" xmlns="http://www.w3.org/2000/svg">
<circle cx="20" cy="20" r="19.5" stroke="black"/>
<path fill-rule="evenodd" clip-rule="evenodd" d="M9 10.838C9 10.3505 9.19365 9.88303 9.53834 9.53834C9.88303 9.19365 10.3505 9 10.838 9H29.16C29.4016 8.99961 29.6409 9.04687 29.8641 9.13907C30.0874 9.23127 30.2903 9.36661 30.4612 9.53734C30.6322 9.70807 30.7677 9.91083 30.8602 10.134C30.9526 10.3572 31.0001 10.5964 31 10.838V29.16C31.0003 29.4016 30.9529 29.6409 30.8606 29.8642C30.7683 30.0875 30.6328 30.2904 30.462 30.4613C30.2912 30.6322 30.0884 30.7678 29.8651 30.8602C29.6419 30.9526 29.4026 31.0001 29.161 31H10.838C10.5965 31 10.3575 30.9524 10.1344 30.86C9.91134 30.7676 9.70867 30.6321 9.53798 30.4613C9.3673 30.2905 9.23193 30.0878 9.13962 29.8647C9.04731 29.6416 8.99987 29.4025 9 29.161V10.838ZM17.708 17.388H20.687V18.884C21.117 18.024 22.217 17.25 23.87 17.25C27.039 17.25 27.79 18.963 27.79 22.106V27.928H24.583V22.822C24.583 21.032 24.153 20.022 23.061 20.022C21.546 20.022 20.916 21.111 20.916 22.822V27.928H17.708V17.388ZM12.208 27.791H15.416V17.25H12.208V27.79V27.791ZM15.875 13.812C15.881 14.0867 15.8322 14.3598 15.7312 14.6153C15.6303 14.8708 15.4794 15.1036 15.2872 15.3C15.0951 15.4964 14.8657 15.6525 14.6125 15.759C14.3592 15.8655 14.0872 15.9204 13.8125 15.9204C13.5378 15.9204 13.2658 15.8655 13.0125 15.759C12.7593 15.6525 12.5299 15.4964 12.3378 15.3C12.1456 15.1036 11.9947 14.8708 11.8938 14.6153C11.7928 14.3598 11.744 14.0867 11.75 13.812C11.7619 13.2729 11.9844 12.7598 12.3699 12.3827C12.7554 12.0056 13.2732 11.7944 13.8125 11.7944C14.3518 11.7944 14.8696 12.0056 15.2551 12.3827C15.6406 12.7598 15.8631 13.2729 15.875 13.812Z" fill="black"/>
</svg>
