<svg width="40" height="40" viewBox="0 0 40 40" fill="none" xmlns="http://www.w3.org/2000/svg">
<circle cx="20" cy="20" r="19.5" stroke="black"/>
<path fill-rule="evenodd" clip-rule="evenodd" d="M20 8C13.372 8 8 13.373 8 20C8 26.627 13.372 32 20 32C26.627 32 32 26.627 32 20C32 13.373 26.627 8 20 8ZM20.14 27.018C16.272 27.018 13.14 23.878 13.14 20C13.14 16.122 16.272 12.982 20.14 12.982C22.03 12.982 23.61 13.679 24.822 14.811L22.848 16.789V16.785C22.113 16.083 21.181 15.723 20.14 15.723C17.83 15.723 15.953 17.679 15.953 19.996C15.953 22.311 17.83 24.273 20.14 24.273C22.236 24.273 23.662 23.071 23.956 21.421H20.14V18.684H26.725C26.813 19.154 26.86 19.644 26.86 20.158C26.86 24.168 24.183 27.018 20.14 27.018Z" fill="black"/>
</svg>
