<svg width="152" height="74" viewBox="0 0 152 74" fill="none" xmlns="http://www.w3.org/2000/svg">
<g clip-path="url(#clip0_194_713)">
<path d="M114.94 36.61C114.94 36.61 125.41 42.51 130.58 45.67C134.23 47.89 137.95 49.23 142.22 48.95C128.98 56.66 115.82 64.51 102.47 72.02C96.47 75.38 89.58 73.02 86.35 67.12C85.5511 65.7638 85.0317 64.2615 84.8223 62.7015C84.6128 61.1415 84.7176 59.5554 85.1304 58.0365C85.5432 56.5177 86.2557 55.0967 87.2259 53.8574C88.1962 52.618 89.4046 51.5853 90.78 50.82C98.67 45.99 114.94 36.61 114.94 36.61Z" fill="#F9BC17"/>
<path d="M143.03 24.72C130.03 17.46 117.21 9.93 104.34 2.46C101.23 0.660004 98.03 -0.539996 94.42 0.460004C89.57 1.8 86.27 4.78001 85.3 9.87001C84.24 15.36 86.3 19.8 91.3 22.87C99.01 27.63 125.38 42.5 130.55 45.66C134.2 47.88 137.92 49.22 142.19 48.94C147.72 46.79 151.64 43.11 151.71 36.94C151.81 30.99 148 27.5 143.03 24.72Z" fill="#36A852"/>
<path d="M36.38 36.79C31.38 33.95 26.52 31.15 21.67 28.1C17.78 25.65 13.77 24.26 9.16998 24.75C22.42 17 35.6 9.11999 48.96 1.55999C50.3369 0.773575 51.8578 0.271736 53.4323 0.0842796C55.0069 -0.103177 56.603 0.0275518 58.1261 0.468709C59.6492 0.909867 61.0681 1.65248 62.2987 2.65246C63.5293 3.65243 64.5465 4.88939 65.29 6.28997C68.45 11.98 66.5 19.07 60.56 22.65C52.59 27.41 44.36 32.12 36.38 36.79Z" fill="#EA4536"/>
<path d="M58.81 49.82C51.38 45.46 26.52 31.15 21.67 28.1C17.78 25.65 13.77 24.26 9.17 24.75C3.79 26.9 0.16999 30.67 -9.6052e-06 36.57C-0.14001 42.29 3.45001 45.85 8.27001 48.57C21.12 55.82 33.84 63.29 46.63 70.63C54.29 75.03 61.48 73.63 65.16 67.2C68.84 60.77 66.29 54.25 58.81 49.82Z" fill="#557EBF"/>
</g>
<defs>
<clipPath id="clip0_194_713">
<rect width="151.74" height="73.56" fill="white"/>
</clipPath>
</defs>
</svg>
